<?xml version="1.0" encoding="utf-8"?>
<!-- Svg Vector Icons : http://www.onlinewebfonts.com/icon -->
<!DOCTYPE svg PUBLIC "-//W3C//DTD SVG 1.1//EN" "http://www.w3.org/Graphics/SVG/1.1/DTD/svg11.dtd">
<svg version="1.1" xmlns="http://www.w3.org/2000/svg" xmlns:xlink="http://www.w3.org/1999/xlink" x="0px" y="0px" viewBox="0 0 1000 1000" enable-background="new 0 0 1000 1000" xml:space="preserve">
<metadata> Svg Vector Icons : http://www.onlinewebfonts.com/icon </metadata>
<g><path d="M807.4,629c27,0,33.8-6.9,33.8-33.8c0-15.6-11-28.3-22.4-37.2l-2.1-2.1c-37.6-29.1-76.8-56.8-121.9-74c57.3-49.2,93.8-122.1,93.8-203.6C788.6,130.1,668.4,10,520.3,10C372.1,10,252,130.1,252,278.3c0,81.5,36.5,154.4,93.8,203.6C162.8,552.2,32.6,729.1,32.5,937v0.1c0.1,26.8,11.9,46.9,38.7,46.9c27,0,28.9-19.4,29-46.2c0-215.2,129.3-418.5,420.1-413.7c88.3,1.5,191.7,35.4,254.7,87.9c17.1,14.3,20.9,14.5,28.5,16.6L807.4,629z M520.3,471.9c-138.6-0.3-205.2-99.4-205.2-193.6c0-94.1,76.1-204.3,205.5-204.3C670.9,74,726,185.3,726,279.4C726,373.6,638.5,475.4,520.3,471.9L520.3,471.9z M609.7,758.1c0,26.9,21.8,39.8,48.8,39.8h260.2c26.9,0,48.8-12.9,48.8-39.8c0-27-21.8-37.2-48.8-37.2H658.5C631.6,720.8,609.7,731.1,609.7,758.1L609.7,758.1z M918.8,916.7H658.5c-26.9,0-48.8,9.5-48.8,36.5c0,27,21.8,36.8,48.8,36.8h260.2c26.9,0,48.8-9.8,48.8-36.8C967.5,926.3,945.7,916.7,918.8,916.7L918.8,916.7z"/></g>
</svg>